<svg width="380" height="180" viewBox="0 0 380 180" fill="none" xmlns="http://www.w3.org/2000/svg">
<rect width="380" height="180" fill="#1E1E1E"/>
<rect width="300" height="100" transform="translate(40 40)" fill="#A1A1AA"/>
<path d="M97.394 108.361L77.2649 75.5871H76.3875V100.929C76.3875 102.202 76.5423 103.2 76.852 103.923C77.1617 104.611 77.7638 105.11 78.6585 105.419C79.5875 105.729 80.9638 105.918 82.7875 105.987V108C82.0993 107.931 81.1015 107.897 79.794 107.897C78.4864 107.862 77.0757 107.845 75.5617 107.845C73.9789 107.845 72.5509 107.862 71.2778 107.897C70.0047 107.897 69.0069 107.931 68.2843 108V105.987C69.9703 105.918 71.2434 105.729 72.1036 105.419C72.9983 105.11 73.5832 104.611 73.8585 103.923C74.1681 103.2 74.323 102.202 74.323 100.929V77.9097C74.323 76.671 74.1853 75.7591 73.9101 75.1742C73.6348 74.5548 73.0671 74.1247 72.2069 73.8839C71.3466 73.643 70.0391 73.5054 68.2843 73.471V71.4581C69.0413 71.4925 70.0563 71.5269 71.3294 71.5613C72.6026 71.5957 74.0305 71.6129 75.6133 71.6129C76.7144 71.6129 77.7294 71.5957 78.6585 71.5613C79.5875 71.5269 80.3617 71.4925 80.981 71.4581L97.0327 97.6258H97.9101V78.529C97.9101 77.2215 97.7552 76.2237 97.4456 75.5355C97.1359 74.8473 96.5337 74.3484 95.6391 74.0387C94.7445 73.6946 93.3853 73.5054 91.5617 73.471V71.4581C92.2843 71.4925 93.2821 71.5269 94.5552 71.5613C95.8628 71.5957 97.2735 71.6129 98.7875 71.6129C100.37 71.6129 101.798 71.5957 103.071 71.5613C104.344 71.5269 105.342 71.4925 106.065 71.4581V73.471C104.379 73.5054 103.089 73.6774 102.194 73.9871C101.334 74.2968 100.749 74.8129 100.439 75.5355C100.129 76.2237 99.9746 77.2215 99.9746 78.529V108.361H97.394ZM122.136 108.723C119.658 108.723 117.491 108.172 115.633 107.071C113.809 105.935 112.398 104.318 111.4 102.219C110.403 100.12 109.904 97.643 109.904 94.7871C109.904 91.8968 110.403 89.4022 111.4 87.3032C112.398 85.1699 113.843 83.5355 115.736 82.4C117.628 81.2645 119.882 80.6968 122.497 80.6968C124.734 80.6968 126.661 81.1269 128.278 81.9871C129.929 82.8473 131.185 84.2065 132.046 86.0645C132.94 87.9226 133.353 90.3484 133.284 93.3419H113.207L113.155 91.3806H128.123C128.157 89.6946 127.968 88.1979 127.555 86.8903C127.142 85.5828 126.489 84.5505 125.594 83.7935C124.734 83.0366 123.615 82.6581 122.239 82.6581C120.484 82.6581 118.936 83.3979 117.594 84.8774C116.286 86.357 115.512 88.6796 115.271 91.8452L115.323 92C115.289 92.3441 115.271 92.7226 115.271 93.1355C115.271 93.5484 115.271 93.9785 115.271 94.4258C115.271 98.0731 115.977 100.895 117.387 102.89C118.798 104.852 120.828 105.832 123.478 105.832C125.198 105.832 126.729 105.419 128.071 104.594C129.448 103.733 130.583 102.409 131.478 100.619L133.284 101.652C132.39 103.888 130.962 105.626 129 106.865C127.074 108.103 124.785 108.723 122.136 108.723ZM156.116 108V105.987C156.976 105.953 157.561 105.832 157.871 105.626C158.215 105.385 158.352 105.075 158.283 104.697C158.249 104.318 158.06 103.94 157.716 103.561L144.193 86.4258C143.574 85.6688 142.972 85.0839 142.387 84.671C141.836 84.2581 141.217 83.9656 140.529 83.7935C139.875 83.6215 139.066 83.5011 138.103 83.4323V81.4194C138.894 81.4538 139.909 81.5054 141.148 81.5742C142.421 81.6086 143.625 81.6258 144.761 81.6258C145.483 81.6258 146.206 81.6086 146.929 81.5742C147.651 81.5398 148.374 81.5054 149.096 81.471C149.853 81.4366 150.542 81.4194 151.161 81.4194V83.4323C150.335 83.4667 149.75 83.6043 149.406 83.8452C149.062 84.0516 148.907 84.3441 148.942 84.7226C149.01 85.0667 149.217 85.4452 149.561 85.8581L163.032 102.942C163.823 103.905 164.701 104.628 165.664 105.11C166.662 105.591 167.746 105.884 168.916 105.987V108C168.228 107.966 167.264 107.931 166.025 107.897C164.821 107.828 163.668 107.794 162.567 107.794C161.432 107.794 160.262 107.828 159.058 107.897C157.888 107.931 156.907 107.966 156.116 108ZM137.638 108V105.987C138.705 105.918 139.668 105.712 140.529 105.368C141.389 105.024 142.249 104.508 143.109 103.819C143.969 103.097 144.881 102.185 145.845 101.084L151.832 94.0645L153.174 95.3548L149.458 99.5871C148.701 100.551 148.185 101.411 147.909 102.168C147.668 102.925 147.651 103.578 147.858 104.129C148.064 104.68 148.46 105.127 149.045 105.471C149.63 105.781 150.369 105.953 151.264 105.987V108C150.576 107.931 149.612 107.897 148.374 107.897C147.169 107.862 145.845 107.845 144.4 107.845C143.643 107.845 142.886 107.862 142.129 107.897C141.406 107.897 140.666 107.914 139.909 107.948C139.187 107.948 138.43 107.966 137.638 108ZM155.135 94.7355L153.742 93.4452L157.664 88.6452C158.456 87.6473 158.92 86.7699 159.058 86.0129C159.195 85.2215 159.023 84.6022 158.542 84.1548C158.094 83.7075 157.303 83.4667 156.167 83.4323V81.4194C156.924 81.4538 157.612 81.4882 158.232 81.5226C158.886 81.5226 159.522 81.5398 160.142 81.5742C160.761 81.5742 161.415 81.5742 162.103 81.5742C163.135 81.5742 164.116 81.557 165.045 81.5226C165.974 81.4882 166.886 81.4538 167.78 81.4194V83.4323C166.92 83.5011 166.094 83.7075 165.303 84.0516C164.511 84.3613 163.72 84.843 162.929 85.4968C162.172 86.1505 161.363 87.0108 160.503 88.0774L155.135 94.7355ZM184.585 108.723C182.004 108.723 180.077 107.983 178.804 106.503C177.531 104.989 176.894 102.718 176.894 99.6903V83.4323H170.701V81.471H176.894V73.5742C177.858 73.5398 178.752 73.471 179.578 73.3677C180.404 73.2301 181.161 73.0581 181.849 72.8516V81.471H190.881V83.4323H181.849V101.135C181.849 102.787 182.176 104.009 182.83 104.8C183.484 105.557 184.481 105.935 185.823 105.935C187.062 105.935 188.077 105.54 188.869 104.748C189.694 103.957 190.314 102.787 190.727 101.239L192.327 101.703C191.81 104.112 190.916 105.884 189.643 107.019C188.404 108.155 186.718 108.723 184.585 108.723ZM207.6 108V105.987C208.77 105.918 209.751 105.677 210.542 105.265C211.368 104.852 212.091 104.215 212.71 103.355C213.364 102.46 213.966 101.308 214.517 99.8968L226.336 71.0968H228.194L240.787 101.703C241.441 103.252 242.233 104.353 243.162 105.006C244.125 105.626 245.519 105.953 247.342 105.987V108C246.482 107.931 245.364 107.897 243.987 107.897C242.611 107.862 241.028 107.845 239.239 107.845C237.209 107.845 235.437 107.862 233.923 107.897C232.443 107.897 231.291 107.931 230.465 108V105.987C232.254 105.953 233.562 105.815 234.387 105.574C235.248 105.299 235.729 104.869 235.833 104.284C235.936 103.665 235.747 102.77 235.265 101.6L225.304 77.2903L226.233 76.4645L217.407 98.1419C216.65 99.9656 216.289 101.445 216.323 102.581C216.357 103.716 216.839 104.559 217.768 105.11C218.732 105.626 220.177 105.918 222.104 105.987V108C221.175 107.966 220.246 107.948 219.317 107.948C218.388 107.914 217.458 107.897 216.529 107.897C215.635 107.862 214.723 107.845 213.794 107.845C212.762 107.845 211.747 107.862 210.749 107.897C209.751 107.897 208.701 107.931 207.6 108ZM217.355 95.3548L218.181 93.3419H234.594L235.368 95.3548H217.355ZM247.809 119.923V117.91C250.011 117.875 251.525 117.583 252.351 117.032C253.177 116.516 253.59 115.57 253.59 114.194V87.9742C253.59 86.3226 253.16 85.1699 252.3 84.5161C251.439 83.828 249.943 83.4667 247.809 83.4323V81.4194C248.497 81.4538 249.203 81.4882 249.925 81.5226C250.648 81.557 251.405 81.5742 252.196 81.5742C254.605 81.5742 256.738 81.3333 258.596 80.8516V113.935C258.596 115.346 259.13 116.344 260.196 116.929C261.263 117.548 263.121 117.875 265.771 117.91V119.923C265.151 119.888 264.308 119.854 263.242 119.819C262.175 119.819 261.022 119.802 259.783 119.768C258.545 119.733 257.34 119.716 256.171 119.716C254.485 119.716 252.867 119.733 251.319 119.768C249.771 119.837 248.601 119.888 247.809 119.923ZM265.667 108.723C263.809 108.723 262.192 108.361 260.816 107.639C259.474 106.882 258.545 105.867 258.029 104.594L258.39 102.787C258.872 103.888 259.646 104.766 260.712 105.419C261.814 106.039 263.069 106.348 264.48 106.348C266.958 106.348 268.867 105.333 270.209 103.303C271.551 101.273 272.222 98.3484 272.222 94.529C272.222 90.9505 271.62 88.1978 270.416 86.271C269.246 84.3097 267.56 83.329 265.358 83.329C263.844 83.329 262.399 83.8108 261.022 84.7742C259.646 85.7032 258.7 86.9075 258.183 88.3871L257.925 86.8903C258.442 85.0667 259.543 83.5871 261.229 82.4516C262.949 81.2817 264.91 80.6968 267.112 80.6968C269.28 80.6968 271.138 81.2473 272.687 82.3484C274.269 83.4495 275.474 85.0151 276.3 87.0452C277.16 89.0409 277.59 91.4151 277.59 94.1677C277.59 97.1269 277.091 99.7075 276.093 101.91C275.095 104.077 273.702 105.763 271.913 106.968C270.123 108.138 268.042 108.723 265.667 108.723ZM282.309 119.923V117.91C284.511 117.875 286.025 117.583 286.851 117.032C287.677 116.516 288.09 115.57 288.09 114.194V87.9742C288.09 86.3226 287.66 85.1699 286.8 84.5161C285.939 83.828 284.443 83.4667 282.309 83.4323V81.4194C282.997 81.4538 283.703 81.4882 284.425 81.5226C285.148 81.557 285.905 81.5742 286.696 81.5742C289.105 81.5742 291.238 81.3333 293.096 80.8516V113.935C293.096 115.346 293.63 116.344 294.696 116.929C295.763 117.548 297.621 117.875 300.271 117.91V119.923C299.651 119.888 298.808 119.854 297.742 119.819C296.675 119.819 295.522 119.802 294.283 119.768C293.045 119.733 291.84 119.716 290.671 119.716C288.985 119.716 287.367 119.733 285.819 119.768C284.271 119.837 283.101 119.888 282.309 119.923ZM300.167 108.723C298.309 108.723 296.692 108.361 295.316 107.639C293.974 106.882 293.045 105.867 292.529 104.594L292.89 102.787C293.372 103.888 294.146 104.766 295.212 105.419C296.314 106.039 297.569 106.348 298.98 106.348C301.458 106.348 303.367 105.333 304.709 103.303C306.051 101.273 306.722 98.3484 306.722 94.529C306.722 90.9505 306.12 88.1978 304.916 86.271C303.746 84.3097 302.06 83.329 299.858 83.329C298.344 83.329 296.899 83.8108 295.522 84.7742C294.146 85.7032 293.2 86.9075 292.683 88.3871L292.425 86.8903C292.942 85.0667 294.043 83.5871 295.729 82.4516C297.449 81.2817 299.41 80.6968 301.612 80.6968C303.78 80.6968 305.638 81.2473 307.187 82.3484C308.769 83.4495 309.974 85.0151 310.8 87.0452C311.66 89.0409 312.09 91.4151 312.09 94.1677C312.09 97.1269 311.591 99.7075 310.593 101.91C309.595 104.077 308.202 105.763 306.413 106.968C304.623 108.138 302.542 108.723 300.167 108.723Z" fill="black"/>
</svg>
